<?xml version="1.0" encoding="UTF-8"?>
<svg version="1.1" xmlns="http://www.w3.org/2000/svg" width="1024" height="1024">
<path d="M0 0 C0.33 0.66 0.66 1.32 1 2 C-0.32037902 3.82821711 -1.64076524 5.65642902 -2.96118164 7.48461914 C-4.12845502 9.10090731 -5.29560669 10.71728339 -6.46264648 12.33374023 C-9.4176384 16.42633096 -12.37415689 20.51778764 -15.3359375 24.60546875 C-22.13637015 33.99580976 -28.8647279 43.43336674 -35.53369141 52.91748047 C-36.97111063 54.95896997 -38.4124995 56.99758672 -39.85546875 59.03515625 C-42.34621803 62.5526266 -44.83045296 66.07461839 -47.31054688 69.59960938 C-48.50340413 71.294432 -49.6975369 72.98835724 -50.89257812 74.68164062 C-59.97690175 87.56663924 -68.76120025 100.55842256 -77 114 C-77.57572754 114.92973633 -78.15145508 115.85947266 -78.74462891 116.81738281 C-88.63862528 132.81920634 -97.58520699 149.17601451 -106 166 C-106.40299316 166.79277344 -106.80598633 167.58554688 -107.22119141 168.40234375 C-147.79343132 248.40911265 -139.11449533 334.56788203 -121.51538086 419.1171875 C-117.66787328 437.74022399 -114.85342852 456.31555447 -113.8125 475.3125 C-113.75370667 476.34191208 -113.75370667 476.34191208 -113.69372559 477.39212036 C-113.11153416 487.60716154 -112.58220838 497.76896323 -113 508 C-113.04108887 509.11262207 -113.08217773 510.22524414 -113.12451172 511.37158203 C-116.22862153 588.95449285 -140.25551395 666.62369488 -188.62988281 728.24462891 C-189.98920072 729.98616414 -191.32220664 731.74489442 -192.6484375 733.51171875 C-197.15369333 739.49528845 -201.83916217 745.21930505 -206.9140625 750.73046875 C-208.84154676 752.8276005 -210.70761357 754.96376355 -212.5625 757.125 C-216.18221689 761.28221545 -220.06967801 765.13903664 -224 769 C-226.66723002 771.65398219 -229.31795681 774.32226604 -231.9453125 777.015625 C-238.62811529 783.83577438 -245.48423139 790.09188243 -253 796 C-254.14231102 796.93022507 -255.2828413 797.86263982 -256.421875 798.796875 C-315.06939367 846.72692107 -388.53063953 875.91140908 -464 882 C-464.68255859 882.05639648 -465.36511719 882.11279297 -466.06835938 882.17089844 C-556.51356563 889.26711007 -645.07353606 861.95097596 -720 812 C-720 811.34 -720 810.68 -720 810 C-702.14794643 801.57442289 -684.2850166 793.17701118 -666.3515625 784.92578125 C-660.74422525 782.34563775 -655.14424708 779.74991585 -649.54711914 777.14770508 C-647.20105887 776.05791495 -644.8539062 774.97047311 -642.50561523 773.88549805 C-637.15835297 771.41277778 -631.82096827 768.92498568 -626.51901245 766.35662842 C-624.72564507 765.48934247 -622.92827541 764.6303482 -621.13085938 763.77148438 C-618.89223773 762.70106007 -616.66001215 761.61711862 -614.43554688 760.51757812 C-603.73403647 755.43761707 -596.97059646 758.54461193 -586.1875 762.1875 C-565.86630682 768.86774834 -545.27457462 773.62404853 -524 776 C-522.82824219 776.14139404 -522.82824219 776.14139404 -521.6328125 776.28564453 C-497.61068612 778.87200213 -471.73708596 778.29337779 -448 774 C-446.95231445 773.81195801 -445.90462891 773.62391602 -444.82519531 773.43017578 C-398.62743368 764.80155968 -356.13928281 745.06180582 -320 715 C-319.4956543 714.58588867 -318.99130859 714.17177734 -318.47167969 713.74511719 C-304.72339455 702.42637975 -291.91581934 690.10043452 -281 676 C-280.13638898 674.93565052 -279.27037322 673.8732491 -278.40234375 672.8125 C-242.50080579 628.6122741 -219.09952787 569.45865163 -218.796875 512.27734375 C-218.78628555 510.93500671 -218.78628555 510.93500671 -218.77548218 509.56555176 C-218.53602389 470.26717168 -223.00373542 432.31078917 -238.0625 395.625 C-238.37880371 394.84576172 -238.69510742 394.06652344 -239.02099609 393.26367188 C-242.60740636 384.88004685 -247.42098686 379.46011557 -256 376 C-265.2438593 373.37135538 -273.48359365 373.51345842 -282.125 377.875 C-288.6902984 381.81188348 -294.68101298 386.6644438 -300.75830078 391.30126953 C-304.58101262 394.19807077 -308.44721338 397.03540018 -312.3125 399.875 C-313.1070459 400.45950928 -313.9015918 401.04401855 -314.72021484 401.64624023 C-316.33885358 402.83699109 -317.95766925 404.02750146 -319.57666016 405.21777344 C-323.55322518 408.14230746 -327.52646271 411.07135433 -331.5 414 C-333.08331696 415.16668888 -334.66665031 416.33335553 -336.25 417.5 C-337.425625 418.36625 -337.425625 418.36625 -338.625 419.25 C-345.75 424.5 -345.75 424.5 -348.12573242 426.25048828 C-349.70668983 427.41543849 -351.28758192 428.58047734 -352.8684082 429.74560547 C-356.86255828 432.6892698 -360.8578843 435.63131346 -364.85546875 438.5703125 C-372.26019463 444.01636895 -379.65424366 449.47457766 -387 455 C-395.1498895 461.13028521 -403.3602261 467.17710259 -411.57666016 473.21777344 C-415.55322518 476.14230746 -419.52646271 479.07135433 -423.5 482 C-425.08331696 483.16668888 -426.66665031 484.33335553 -428.25 485.5 C-429.425625 486.36625 -429.425625 486.36625 -430.625 487.25 C-437.75 492.5 -437.75 492.5 -440.12573242 494.25048828 C-441.70668983 495.41543849 -443.28758192 496.58047734 -444.8684082 497.74560547 C-448.86255828 500.6892698 -452.8578843 503.63131346 -456.85546875 506.5703125 C-464.26019463 512.01636895 -471.65424366 517.47457766 -479 523 C-487.1498895 529.13028521 -495.3602261 535.17710259 -503.57666016 541.21777344 C-507.55322518 544.14230746 -511.52646271 547.07135433 -515.5 550 C-517.08331696 551.16668888 -518.66665031 552.33335553 -520.25 553.5 C-521.425625 554.36625 -521.425625 554.36625 -522.625 555.25 C-529.74999999 560.5 -529.74999999 560.5 -532.12573242 562.25048828 C-533.70668983 563.41543849 -535.28758192 564.58047734 -536.8684082 565.74560547 C-540.86255828 568.6892698 -544.8578843 571.63131346 -548.85546875 574.5703125 C-556.26019463 580.01636895 -563.65424366 585.47457766 -571 591 C-579.13656637 597.12026365 -587.3338091 603.15662908 -595.53710938 609.18701172 C-598.05330989 611.03924259 -600.5661494 612.89595039 -603.078125 614.75390625 C-619.09067483 626.59156685 -619.09067483 626.59156685 -627 632 C-627 628.15636331 -625.50408801 627.14707704 -622.89728254 624.51470071 C-621.98229005 623.61383919 -621.98229005 623.61383919 -621.04881287 622.69477844 C-620.40855055 622.05265842 -619.76828824 621.4105384 -619.10862404 620.7489602 C-616.94854097 618.58626513 -614.77787937 616.43450393 -612.60717773 614.2824707 C-611.06125435 612.73902922 -609.51599696 611.19492042 -607.97135925 609.65019226 C-604.63628483 606.31782961 -601.29649004 602.99029584 -597.95300102 599.66637611 C-592.66356879 594.40789732 -587.38446662 589.13913033 -582.10670471 583.86894226 C-574.70230345 576.47740227 -567.29304117 569.0907628 -559.87963867 561.70825195 C-552.26190181 554.12221753 -544.64584014 546.5345111 -537.03295898 538.94360352 C-536.33097777 538.24365266 -536.33097777 538.24365266 -535.61481511 537.52956138 C-527.79684118 529.73399027 -519.9809772 521.93630506 -512.16582638 514.13790387 C-506.920554 508.90444539 -501.67211792 503.67418629 -496.42100036 498.44659293 C-493.14689957 495.18636319 -489.87481987 491.92411029 -486.60318184 488.66140938 C-485.08961238 487.1528907 -483.57516344 485.64525383 -482.05975342 484.13858414 C-479.98417506 482.07478019 -477.9117786 480.00782988 -475.84007263 477.94013977 C-475.24569269 477.35071903 -474.65131275 476.76129829 -474.0389213 476.15401632 C-471.08587639 473.20023381 -468.25789617 470.18621912 -465.52552891 467.02637005 C-462.09330661 463.06003072 -458.46971384 459.33518101 -454.75146484 455.63793945 C-454.05621893 454.94254468 -453.36097301 454.24714991 -452.64465904 453.53068256 C-450.33578592 451.22249881 -448.02336844 448.9179002 -445.7109375 446.61328125 C-444.0461842 444.95044892 -442.38165976 443.28738744 -440.71734619 441.62411499 C-437.14317597 438.05309743 -433.56746002 434.48363751 -429.99053955 430.91537476 C-424.81092388 425.74816774 -419.63439666 420.57787503 -414.45883727 415.40660584 C-406.04918677 407.00400923 -397.6376702 398.60328354 -389.22460938 390.20410156 C-388.72199955 389.70231955 -388.21938972 389.20053753 -387.70154929 388.68355 C-383.62402787 384.61277246 -379.54641562 380.5420859 -375.46879959 376.47140312 C-371.90428746 372.9129441 -368.33981162 369.35444874 -364.77539062 365.79589844 C-364.27339826 365.2947342 -363.7714059 364.79356997 -363.25420165 364.27721894 C-354.8708583 355.90758255 -346.48949465 347.53596638 -338.1095295 339.16294765 C-332.49140339 333.54968647 -326.87073974 327.93897899 -321.24824524 322.33009338 C-317.74790279 318.83722505 -314.24964662 315.34227291 -310.7519455 311.8467598 C-309.13353484 310.23021665 -307.5142622 308.61453593 -305.8940506 306.99979782 C-303.67654243 304.78954363 -301.46218184 302.5761812 -299.24853516 300.36206055 C-298.61223867 299.72935903 -297.97594219 299.09665751 -297.320364 298.44478321 C-294.35706714 295.47471895 -291.50490505 292.4634583 -288.77580929 289.27622986 C-283.91058657 283.65316936 -278.60024401 278.46549412 -273.33851624 273.21826172 C-272.15669347 272.03600233 -270.97509072 270.85352297 -269.79368776 269.67084408 C-266.56229469 266.4372241 -263.32780729 263.20671516 -260.09278858 259.97672296 C-256.59890258 256.48716726 -253.10791921 252.99470984 -249.61657715 249.50260925 C-243.57236894 243.45787744 -237.52633679 237.41497499 -231.47905159 231.37332153 C-222.73576221 222.63816934 -213.99524508 213.90024752 -205.2553957 205.16165364 C-191.07448235 190.98292732 -176.89133864 176.80643424 -162.70678711 162.63134766 C-148.93022296 148.86396664 -135.15471255 135.09553266 -121.38061523 121.32568359 C-120.10643322 120.05189567 -120.10643322 120.05189567 -118.80651016 118.75237465 C-114.54492708 114.49209663 -110.28336468 110.23179794 -106.02181256 105.97148895 C-70.68441377 70.64445191 -35.343393 35.32103998 0 0 Z " fill="#FFFFFF" transform="translate(1023,21)"/>
<path d="M0 0 C0.99177246 -0.00067474 1.98354492 -0.00134949 3.00537109 -0.00204468 C20.02040639 0.01624628 36.63694671 0.8206775 53.5 3.25 C55.29896729 3.50740967 55.29896729 3.50740967 57.13427734 3.77001953 C98.67353931 9.92093049 140.48066331 22.49002039 177.64306641 42.26855469 C179.60942734 43.30783565 181.5900938 44.31539645 183.57421875 45.3203125 C197.87028154 52.62888083 212.24590118 60.79905686 224.5 71.25 C221.73954445 74.65364952 217.94348415 76.09473471 214.046875 77.84765625 C213.29183685 78.19386017 212.53679871 78.54006409 211.75888062 78.89675903 C209.25869575 80.04152396 206.75437207 81.17692827 204.25 82.3125 C202.49040494 83.11624817 200.73113239 83.92070272 198.97216797 84.72583008 C195.30980819 86.40160099 191.64606669 88.07429829 187.98144531 89.74511719 C181.13734334 92.86875192 174.31022603 96.02878423 167.48339844 99.18994141 C164.251672 100.68617709 161.01797297 102.17800528 157.78222656 103.66552734 C156.1803312 104.40200227 154.57844314 105.13849307 152.9765625 105.875 C152.1920874 106.23566559 151.4076123 106.59633118 150.59936523 106.96792603 C145.82612386 109.16648868 141.0664152 111.39178612 136.31564331 113.63847351 C133.26940122 115.07643606 130.21703112 116.50105688 127.16351318 117.92349243 C125.73855731 118.59134879 124.31645852 119.26534076 122.89752197 119.94589233 C120.94917704 120.87971913 118.99190245 121.79158352 117.03125 122.69921875 C115.93361328 123.21830811 114.83597656 123.73739746 113.70507812 124.2722168 C107.80471048 126.0722604 102.69949881 124.14537998 97.0625 122.140625 C95.24298828 121.5065271 95.24298828 121.5065271 93.38671875 120.85961914 C92.7529834 120.63726593 92.11924805 120.41491272 91.46630859 120.18582153 C21.29656168 95.71157392 -55.3833031 102.30212562 -122.16992188 134.12207031 C-146.2357499 145.77170626 -168.34562034 160.35255957 -187.82421875 178.7265625 C-190.43787793 181.19141481 -193.11378684 183.56651663 -195.8125 185.9375 C-199.31377785 189.08920494 -202.51307509 192.31722399 -205.54296875 195.921875 C-207.06297334 197.73010402 -208.60515743 199.50215589 -210.17578125 201.265625 C-238.53947815 233.33239917 -259.08911794 273.09331672 -270.5 314.25 C-270.71994629 315.04196777 -270.93989258 315.83393555 -271.16650391 316.64990234 C-289.76287559 385.26410131 -280.51584359 457.66746566 -245.65234375 519.359375 C-239.70658763 529.54846082 -232.79308533 538.99239488 -225.5 548.25 C-224.72914063 549.23484375 -223.95828125 550.2196875 -223.1640625 551.234375 C-218.59805447 556.93776409 -213.74854743 562.33932216 -208.74804688 567.66088867 C-205.5294058 571.09017097 -202.48062797 574.61124067 -199.5 578.25 C-201.99782573 580.60648224 -204.49866815 582.95974016 -207 585.3125 C-207.69609375 585.96927734 -208.3921875 586.62605469 -209.109375 587.30273438 C-213.23812418 591.18299402 -217.42647899 594.9748843 -221.70507812 598.68920898 C-223.99589917 600.68121374 -226.24962386 602.71249728 -228.5 604.75 C-231.45869751 607.42048344 -234.42926472 610.07298058 -237.4375 612.6875 C-241.63303221 616.34057956 -245.73373553 620.09505549 -249.84375 623.84375 C-252.66722669 626.40148771 -255.53056002 628.90769969 -258.40625 631.40625 C-260.96419027 633.65876457 -263.4817898 635.95317092 -266 638.25 C-269.76350521 641.68264761 -273.56129351 645.0655501 -277.40625 648.40625 C-279.96419027 650.65876457 -282.4817898 652.95317092 -285 655.25 C-288.76350521 658.68264761 -292.56129351 662.0655501 -296.40625 665.40625 C-298.96419027 667.65876457 -301.4817898 669.95317092 -304 672.25 C-307.76350521 675.68264761 -311.56129351 679.0655501 -315.40625 682.40625 C-317.96419027 684.65876457 -320.4817898 686.95317092 -323 689.25 C-326.76350521 692.68264761 -330.56129351 696.0655501 -334.40625 699.40625 C-336.96419027 701.65876457 -339.4817898 703.95317092 -342 706.25 C-345.78934126 709.70575413 -349.61083698 713.1152289 -353.48046875 716.48046875 C-357.52665089 720.02576954 -361.50743187 723.64458999 -365.5 727.25 C-374.98872041 735.81860207 -374.98872041 735.81860207 -379.4375 739.6875 C-383.63303221 743.34057956 -387.73373553 747.09505549 -391.84375 750.84375 C-394.66722669 753.40148771 -397.53056002 755.90769969 -400.40625 758.40625 C-402.96419027 760.65876457 -405.4817898 762.95317092 -408 765.25 C-411.76350521 768.68264761 -415.56129351 772.0655501 -419.40625 775.40625 C-421.96419027 777.65876457 -424.4817898 779.95317092 -427 782.25 C-430.76350521 785.68264761 -434.56129351 789.0655501 -438.40625 792.40625 C-440.96419027 794.65876457 -443.4817898 796.95317092 -446 799.25 C-449.76350521 802.68264761 -453.56129351 806.0655501 -457.40625 809.40625 C-459.96419027 811.65876457 -462.4817898 813.95317092 -465 816.25 C-468.76350521 819.68264761 -472.56129351 823.0655501 -476.40625 826.40625 C-478.96419027 828.65876457 -481.4817898 830.95317092 -484 833.25 C-487.78934126 836.70575413 -491.61083698 840.1152289 -495.48046875 843.48046875 C-497.7962085 845.50954053 -500.08698481 847.56471883 -502.375 849.625 C-503.21546875 850.38167969 -504.0559375 851.13835938 -504.921875 851.91796875 C-506.64581675 853.47735243 -508.36455433 855.04250814 -510.078125 856.61328125 C-515.02591486 861.12851893 -520.04238951 865.36259588 -525.5 869.25 C-524.01414318 864.75045619 -521.50492747 861.38878158 -518.5625 857.75 C-518.07813477 857.14269043 -517.59376953 856.53538086 -517.09472656 855.90966797 C-507.71229152 844.21039535 -497.84302144 832.92041402 -487.79296875 821.79296875 C-486.35298213 820.19598189 -484.91740084 818.59500017 -483.48828125 816.98828125 C-478.53568875 811.43194414 -473.47194477 805.986434 -468.375 800.5625 C-467.37134399 799.49310181 -467.37134399 799.49310181 -466.34741211 798.40209961 C-463.18179832 795.04290371 -459.99044358 791.7210298 -456.71484375 788.46875 C-454.43205958 786.20177369 -452.2545784 783.90573647 -450.1875 781.4375 C-447.42381971 778.22666245 -444.51380404 775.22732835 -441.5 772.25 C-438.037242 768.82352839 -434.76374877 765.3345187 -431.6015625 761.6328125 C-429.28143889 759.00218907 -426.8859324 756.45384876 -424.47900391 753.90283203 C-419.01075596 748.10622998 -413.72532846 742.26222132 -408.75390625 736.02734375 C-407.12591625 734.02127635 -405.48216914 732.06704224 -403.77734375 730.12890625 C-377.33037238 700.05282515 -355.41463618 665.32958787 -345.5 626.25 C-345.32065918 625.54681641 -345.14131836 624.84363281 -344.95654297 624.11914062 C-336.26820358 588.05433562 -345.9569552 552.85794048 -358.93774414 519.28857422 C-375.22648349 477.09412763 -382.7223135 431.99883031 -382.75 386.875 C-382.75067474 385.88267365 -382.75134949 384.89034729 -382.75204468 383.86795044 C-382.66499571 302.83837389 -357.1212245 221.40383599 -308.5 156.25 C-308.06880859 155.66863281 -307.63761719 155.08726562 -307.19335938 154.48828125 C-290.22592543 131.70865411 -270.5261233 108.65314645 -248.03125 91.2265625 C-245.65841433 89.37370008 -243.3978962 87.42576179 -241.13793945 85.43798828 C-175.96179035 28.53384695 -85.56312172 0.05262953 0 0 Z " fill="#FFFFFF" transform="translate(525.5,135.75)"/>
</svg>
